HIERARCHY
ROOT hip
{
  OFFSET 6.21712 82.5421 -17.529
  CHANNELS 6 Xposition Yposition Zposition Zrotation Xrotation Yrotation
  JOINT abdomen
  {
    OFFSET 0 20.6881 -0.73152
    CHANNELS 3 Zrotation Xrotation Yrotation
    JOINT chest
    {
      OFFSET 0 11.7043 -0.48768
      CHANNELS 3 Zrotation Xrotation Yrotation
      JOINT neck
      {
        OFFSET 0 22.1894 -2.19456
        CHANNELS 3 Zrotation Xrotation Yrotation
        JOINT head
        {
          OFFSET -0.24384 7.07133 1.2192
          CHANNELS 3 Zrotation Xrotation Yrotation
          JOINT leftEye
          {
            OFFSET 4.14528 8.04674 8.04672
            CHANNELS 3 Zrotation Xrotation Yrotation
            End Site
            {
              OFFSET 1 0 0
            }
          }
          JOINT rightEye
          {
            OFFSET -3.6576 8.04674 8.04672
            CHANNELS 3 Zrotation Xrotation Yrotation
            End Site
            {
              OFFSET 1 0 0
            }
          }
        }
      }
      JOINT rCollar
      {
        OFFSET -2.68224 19.2634 -4.8768
        CHANNELS 3 Zrotation Xrotation Yrotation
        JOINT rShldr
        {
          OFFSET -8.77824 -1.95073 1.46304
          CHANNELS 3 Zrotation Xrotation Yrotation
          JOINT rForeArm
          {
            OFFSET -28.1742 -1.7115 0.48768
            CHANNELS 3 Zrotation Xrotation Yrotation
            JOINT rHand
            {
              OFFSET -22.5879 0.773209 7.07136
              CHANNELS 3 Zrotation Xrotation Yrotation
              JOINT rThumb1
              {
                OFFSET -1.2192 -0.487915 3.41376
                CHANNELS 3 Zrotation Xrotation Yrotation
                JOINT rThumb2
                {
                  OFFSET -3.37035 -0.52449 3.41376
                  CHANNELS 3 Zrotation Xrotation Yrotation
                  End Site
                  {
                    OFFSET -1.78271 -1.18214 1.43049
                  }
                }
              }
              JOINT rIndex1
              {
                OFFSET -7.75947 0.938293 5.60832
                CHANNELS 3 Zrotation Xrotation Yrotation
                JOINT rIndex2
                {
                  OFFSET -2.54057 -0.884171 1.56538
                  CHANNELS 3 Zrotation Xrotation Yrotation
                  End Site
                  {
                    OFFSET -1.62519 -0.234802 1.16502
                  }
                }
              }
              JOINT rMid1
              {
                OFFSET -8.24714 1.18213 3.41376
                CHANNELS 3 Zrotation Xrotation Yrotation
                JOINT rMid2
                {
                  OFFSET -3.10165 -0.590103 1.0647
                  CHANNELS 3 Zrotation Xrotation Yrotation
                  End Site
                  {
                    OFFSET -2.48547 -0.328903 0.83742
                  }
                }
              }
              JOINT rRing1
              {
                OFFSET -8.82822 0.546677 1.51678
                CHANNELS 3 Zrotation Xrotation Yrotation
                JOINT rRing2
                {
                  OFFSET -2.60934 -0.819778 -0.0198488
                  CHANNELS 3 Zrotation Xrotation Yrotation
                  End Site
                  {
                    OFFSET -2.33842 -0.294052 0.168128
                  }
                }
              }
              JOINT rPinky1
              {
                OFFSET -8.27202 -0.0477905 -0.4584
                CHANNELS 3 Zrotation Xrotation Yrotation
                JOINT rPinky2
                {
                  OFFSET -1.82734 -0.647385 -0.700984
                  CHANNELS 3 Zrotation Xrotation Yrotation
                  End Site
                  {
                    OFFSET -1.69225 -0.51767 -0.607171
                  }
                }
              }
            }
          }
        }
      }
      JOINT lCollar
      {
        OFFSET 2.68224 19.2634 -4.8768
        CHANNELS 3 Zrotation Xrotation Yrotation
        JOINT lShldr
        {
          OFFSET 8.77824 -1.95073 1.46304
          CHANNELS 3 Zrotation Xrotation Yrotation
          JOINT lForeArm
          {
            OFFSET 28.1742 -1.7115 0.48768
            CHANNELS 3 Zrotation Xrotation Yrotation
            JOINT lHand
            {
              OFFSET 22.5879 0.773209 7.07136
              CHANNELS 3 Zrotation Xrotation Yrotation
              JOINT lThumb1
              {
                OFFSET 1.2192 -0.487915 3.41376
                CHANNELS 3 Zrotation Xrotation Yrotation
                JOINT lThumb2
                {
                  OFFSET 3.37035 -0.52449 3.41376
                  CHANNELS 3 Zrotation Xrotation Yrotation
                  End Site
                  {
                    OFFSET 1.78271 -1.18214 1.43049
                  }
                }
              }
              JOINT lIndex1
              {
                OFFSET 7.75947 0.938293 5.60832
                CHANNELS 3 Zrotation Xrotation Yrotation
                JOINT lIndex2
                {
                  OFFSET 2.54057 -0.884171 1.56538
                  CHANNELS 3 Zrotation Xrotation Yrotation
                  End Site
                  {
                    OFFSET 1.62519 -0.234802 1.16502
                  }
                }
              }
              JOINT lMid1
              {
                OFFSET 8.24714 1.18213 3.41376
                CHANNELS 3 Zrotation Xrotation Yrotation
                JOINT lMid2
                {
                  OFFSET 3.10165 -0.590103 1.0647
                  CHANNELS 3 Zrotation Xrotation Yrotation
                  End Site
                  {
                    OFFSET 2.48547 -0.328903 0.83742
                  }
                }
              }
              JOINT lRing1
              {
                OFFSET 8.82822 0.546677 1.51678
                CHANNELS 3 Zrotation Xrotation Yrotation
                JOINT lRing2
                {
                  OFFSET 2.60934 -0.819778 -0.0198488
                  CHANNELS 3 Zrotation Xrotation Yrotation
                  End Site
                  {
                    OFFSET 2.33842 -0.294052 0.168128
                  }
                }
              }
              JOINT lPinky1
              {
                OFFSET 8.27202 -0.0477905 -0.4584
                CHANNELS 3 Zrotation Xrotation Yrotation
                JOINT lPinky2
                {
                  OFFSET 1.82734 -0.647385 -0.700984
                  CHANNELS 3 Zrotation Xrotation Yrotation
                  End Site
                  {
                    OFFSET 1.69225 -0.51767 -0.607171
                  }
                }
              }
            }
          }
        }
      }
    }
  }
  JOINT rButtock
  {
    OFFSET -8.77824 4.35084 1.2192
    CHANNELS 3 Zrotation Xrotation Yrotation
    JOINT rThigh
    {
      OFFSET 0 -1.70687 -2.19456
      CHANNELS 3 Zrotation Xrotation Yrotation
      JOINT rShin
      {
        OFFSET 0 -36.8199 0.73152
        CHANNELS 3 Zrotation Xrotation Yrotation
        JOINT rFoot
        {
          OFFSET 0.73152 -45.1104 -5.12064
          CHANNELS 3 Zrotation Xrotation Yrotation
          End Site
          {
            OFFSET -1.1221 -3.69964 12.103
          }
        }
      }
    }
  }
  JOINT lButtock
  {
    OFFSET 8.77824 4.35084 1.2192
    CHANNELS 3 Zrotation Xrotation Yrotation
    JOINT lThigh
    {
      OFFSET 0 -1.70687 -2.19456
      CHANNELS 3 Zrotation Xrotation Yrotation
      JOINT lShin
      {
        OFFSET 0 -36.8199 0.73152
        CHANNELS 3 Zrotation Xrotation Yrotation
        JOINT lFoot
        {
          OFFSET -0.73152 -45.1104 -5.12064
          CHANNELS 3 Zrotation Xrotation Yrotation
          End Site
          {
            OFFSET 1.1221 -3.69964 12.103
          }
        }
      }
    }
  }
}
MOTION
Frames:	6
Frame Time:	0.00833333
4.1983 32.7717 -20.0685 -5.32831 7.09314 3.43948 -1.37803 58.7345 23.1966 1.68437 0.131989 5.68093 -3.72909 0.0552559 -7.2848 -5.88137 4.24955 -12.5414 -0 0 0 -0 0 0 1.28894e-013 6.88332e-014 1.48044e-014 45.841 -3.27111 54.6398 -14.5701 -7.42366 26.7085 -0.253056 14.1771 2.03458 1.99263e-009 -9.63562e-010 2.7238e-011 3.44589e-009 -1.63168e-009 2.08438e-011 1.99264e-009 -9.63562e-010 2.72219e-011 7.73091 5.47488 0.417314 1.99263e-009 -9.63565e-010 2.72373e-011 2.90554 0.965183 0.102902 1.99264e-009 -9.63565e-010 2.7238e-011 10.2786 0.731801 0.0259123 1.99263e-009 -9.63564e-010 2.72467e-011 2.22167 -0.733487 -0.20892 1.28813e-013 6.8874e-014 1.45152e-014 -63.9283 63.3557 -10.49 28.4288 -36.1672 -77.2895 0.212461 13.0177 -1.86199 -2.1865e-009 -4.47262e-011 1.76592e-009 -3.76067e-009 -4.94732e-011 3.07342e-009 -2.18651e-009 -4.47287e-011 1.76593e-009 -7.73091 5.47488 -0.417314 -2.1865e-009 -4.47379e-011 1.76591e-009 -2.90554 0.965183 -0.102902 -2.18651e-009 -4.4735e-011 1.76591e-009 -10.2786 0.731801 -0.0259123 -2.1865e-009 -4.4729e-011 1.76592e-009 -2.22167 -0.733487 0.20892 -2.03217e-016 0 -3.88251e-019 -103.829 -22.209 -109.489 -177.49 38.803 177.546 11.6204 -8.34734 22.0792 2.03217e-016 0 3.88251e-019 126.909 -40.1325 117.912 177.303 39.9456 -176.192 -16.6825 -9.66802 -31.2229 
4.19259 32.7316 -20.0409 -5.37448 7.13228 3.43462 -1.3547 58.6997 23.2091 1.73895 0.113324 5.68811 -3.74622 0.0640801 -7.2739 -5.94346 4.26023 -12.5132 -0 0 0 -0 0 0 1.27257e-013 9.22175e-014 1.52567e-014 45.5903 -3.09932 54.4983 -14.6427 -7.48493 26.8565 -0.258431 14.3236 2.0565 2.78609e-009 -1.32193e-009 1.2561e-010 4.81899e-009 -2.23696e-009 1.7986e-010 2.7861e-009 -1.32193e-009 1.25594e-010 7.73091 5.47488 0.417314 2.78609e-009 -1.32194e-009 1.2561e-010 2.90554 0.965183 0.102902 2.7861e-009 -1.32194e-009 1.25608e-010 10.2786 0.731801 0.0259123 2.78609e-009 -1.32194e-009 1.25616e-010 2.22167 -0.733487 -0.20892 1.27196e-013 9.22539e-014 1.49585e-014 -63.9006 63.4368 -10.5251 28.4286 -36.1819 -77.3143 0.212873 13.0302 -1.86384 -2.93939e-009 -1.66152e-011 2.35974e-009 -5.05647e-009 9.15682e-012 4.10835e-009 -2.93939e-009 -1.66172e-011 2.35975e-009 -7.73091 5.47488 -0.417314 -2.93939e-009 -1.66283e-011 2.35973e-009 -2.90554 0.965183 -0.102902 -2.93939e-009 -1.66247e-011 2.35973e-009 -10.2786 0.731801 -0.0259123 -2.93938e-009 -1.6618e-011 2.35973e-009 -2.22167 -0.733487 0.20892 -2.03217e-016 0 -3.88251e-019 -103.824 -22.1358 -109.542 -177.492 38.7408 177.556 11.5913 -8.36073 21.9737 2.03217e-016 0 3.88251e-019 127.209 -40.0304 118.055 177.304 39.8582 -176.185 -16.6978 -9.43301 -31.4034 
4.2031 32.7189 -19.9952 -5.36146 7.13436 3.41476 -1.4094 58.7062 23.2364 1.73184 0.097944 5.68701 -3.72424 0.0946731 -7.26018 -5.92106 4.2704 -12.4929 -0 0 0 -0 0 0 1.13732e-013 1.35657e-013 1.21084e-014 45.4375 -2.93208 54.3793 -14.7193 -7.54977 27.0129 -0.264252 14.4797 2.07991 3.2155e-009 -1.5088e-009 1.25696e-010 5.56117e-009 -2.55082e-009 1.73153e-010 3.21551e-009 -1.5088e-009 1.25682e-010 7.73091 5.47488 0.417314 3.2155e-009 -1.5088e-009 1.25698e-010 2.90554 0.965183 0.102902 3.2155e-009 -1.5088e-009 1.25694e-010 10.2786 0.731801 0.0259123 3.2155e-009 -1.5088e-009 1.25701e-010 2.22167 -0.733487 -0.20892 1.1366e-013 1.35683e-013 1.18044e-014 -63.7674 63.4763 -10.6153 28.4286 -36.1785 -77.3087 0.214161 13.0689 -1.86957 -3.43909e-009 6.66551e-011 2.8457e-009 -5.91574e-009 1.59935e-010 4.95386e-009 -3.4391e-009 6.66545e-011 2.84571e-009 -7.73091 5.47488 -0.417314 -3.4391e-009 6.66439e-011 2.84569e-009 -2.90554 0.965183 -0.102902 -3.4391e-009 6.66485e-011 2.84569e-009 -10.2786 0.731801 -0.0259123 -3.43909e-009 6.66549e-011 2.84569e-009 -2.22167 -0.733487 0.20892 -2.03217e-016 0 -3.88251e-019 -103.881 -22.0696 -109.546 -177.494 38.6797 177.561 11.5831 -8.34894 21.9282 2.03217e-016 0 3.88251e-019 127.416 -40.0491 118.167 177.305 39.7923 -176.186 -16.6775 -9.21085 -31.5277 
4.20532 32.7103 -19.944 -5.31321 7.11404 3.38431 -1.51361 58.7381 23.2758 1.68605 0.0847315 5.68132 -3.68129 0.135392 -7.24506 -5.83969 4.28401 -12.4772 -0 0 0 -0 0 0 8.82128e-014 1.95599e-013 4.27698e-015 45.3471 -2.7696 54.2778 -14.7951 -7.61434 27.1677 -0.270806 14.6519 2.10578 3.50615e-009 -1.64285e-009 8.03362e-011 6.06267e-009 -2.77505e-009 8.92345e-011 3.50615e-009 -1.64285e-009 8.03247e-011 7.73091 5.47488 0.417314 3.50615e-009 -1.64286e-009 8.034e-011 2.90554 0.965183 0.102902 3.50615e-009 -1.64285e-009 8.03333e-011 10.2786 0.731801 0.0259123 3.50615e-009 -1.64285e-009 8.03406e-011 2.22167 -0.733487 -0.20892 8.8115e-014 1.95609e-013 3.96948e-015 -63.5665 63.4881 -10.7434 28.4289 -36.162 -77.2811 0.215924 13.1214 -1.87736 -3.86042e-009 1.90718e-010 3.33173e-009 -6.63963e-009 3.8032e-010 5.79857e-009 -3.86043e-009 1.9072e-010 3.33173e-009 -7.73091 5.47488 -0.417314 -3.86043e-009 1.90711e-010 3.33171e-009 -2.90554 0.965183 -0.102902 -3.86043e-009 1.90717e-010 3.33172e-009 -10.2786 0.731801 -0.0259123 -3.86042e-009 1.90722e-010 3.33172e-009 -2.22167 -0.733487 0.20892 -2.03217e-016 0 -3.88251e-019 -103.973 -22.0198 -109.527 -177.495 38.6221 177.566 11.5808 -8.32427 21.906 2.03217e-016 0 3.88251e-019 127.575 -40.1495 118.267 177.307 39.7433 -176.193 -16.6296 -8.98091 -31.6247 
4.22276 32.6846 -19.9256 -5.25568 7.08867 3.35301 -1.62023 58.7742 23.3096 1.63022 0.0771451 5.67365 -3.63263 0.173072 -7.22877 -5.7476 4.29891 -12.461 -0 0 0 -0 0 0 6.55285e-014 2.40433e-013 1.46374e-016 45.3033 -2.62901 54.1936 -14.8626 -7.67208 27.306 -0.278306 14.8472 2.13515 3.49282e-009 -1.57171e-009 -4.27965e-011 6.03766e-009 -2.6499e-009 -1.24745e-010 3.49282e-009 -1.57171e-009 -4.28051e-011 7.73091 5.47488 0.417314 3.49282e-009 -1.57171e-009 -4.27907e-011 2.90554 0.965183 0.102902 3.49282e-009 -1.5717e-009 -4.27996e-011 10.2786 0.731801 0.0259123 3.49282e-009 -1.5717e-009 -4.27926e-011 2.22167 -0.733487 -0.20892 6.54003e-014 2.40427e-013 -1.5996e-016 -63.3504 63.4887 -10.8791 28.4292 -36.1476 -77.257 0.217567 13.17 -1.88457 -4.00131e-009 3.03366e-010 3.59764e-009 -6.88096e-009 5.77215e-010 6.25974e-009 -4.00131e-009 3.0337e-010 3.59765e-009 -7.73091 5.47488 -0.417314 -4.00132e-009 3.03363e-010 3.59762e-009 -2.90554 0.965183 -0.102902 -4.00131e-009 3.0337e-010 3.59763e-009 -10.2786 0.731801 -0.0259123 -4.00131e-009 3.03375e-010 3.59763e-009 -2.22167 -0.733487 0.20892 -2.03217e-016 0 -3.88251e-019 -104.076 -21.9659 -109.497 -177.496 38.5673 177.567 11.5876 -8.28212 21.9174 2.03217e-016 0 3.88251e-019 127.674 -40.259 118.328 177.309 39.6971 -176.201 -16.5881 -8.85384 -31.6417 
4.24376 32.6609 -19.9258 -5.21481 7.07555 3.33056 -1.68199 58.7935 23.3199 1.59303 0.0786439 5.66662 -3.59348 0.194549 -7.21154 -5.69303 4.31294 -12.4393 -0 0 0 -0 0 0 6.05072e-014 2.38551e-013 8.10048e-015 45.2903 -2.52749 54.1266 -14.9145 -7.71648 27.4127 -0.287002 15.0727 2.16911 3.01029e-009 -1.14297e-009 -2.76028e-010 5.20034e-009 -1.91562e-009 -5.21633e-010 3.01029e-009 -1.14297e-009 -2.76034e-010 7.73091 5.47488 0.417314 3.01029e-009 -1.14298e-009 -2.76021e-010 2.90554 0.965183 0.102902 3.01029e-009 -1.14296e-009 -2.76031e-010 10.2786 0.731801 0.0259123 3.01029e-009 -1.14296e-009 -2.76024e-010 2.22167 -0.733487 -0.20892 6.0358e-014 2.38532e-013 7.8023e-015 -63.1713 63.4951 -10.992 28.4292 -36.1506 -77.2618 0.218479 13.1968 -1.88854 -3.65968e-009 3.52393e-010 3.42327e-009 -6.29258e-009 6.57526e-010 5.95458e-009 -3.65968e-009 3.52397e-010 3.42328e-009 -7.73091 5.47488 -0.417314 -3.65969e-009 3.52392e-010 3.42326e-009 -2.90554 0.965183 -0.102902 -3.65968e-009 3.52399e-010 3.42327e-009 -10.2786 0.731801 -0.0259123 -3.65968e-009 3.52403e-010 3.42327e-009 -2.22167 -0.733487 0.20892 -2.03217e-016 0 -3.88251e-019 -104.169 -21.8874 -109.467 -177.497 38.5145 177.564 11.6064 -8.21794 21.9724 2.03217e-016 0 3.88251e-019 127.705 -40.305 118.328 177.311 39.6399 -176.205 -16.5867 -8.94021 -31.5254 
